%TF.GenerationSoftware,KiCad,Pcbnew,10.0.5*%
%TF.CreationDate,2026-09-30T17:25:15+08:00*%
%TF.ProjectId,board,626f6172-642e-46b6-9963-61645f706362,rev?*%
%TF.SameCoordinates,Original*%
%TF.FileFunction,Soldermask,Top*%
%TF.FilePolarity,Negative*%
%FSLAX46Y46*%
G04 Gerber Fmt 4.6, Leading zero omitted, Abs format (unit mm)*
G04 Created by KiCad (PCBNEW 10.0.5) date 2026-09-30 17:25:15*
%MOMM*%
%LPD*%
G01*
G04 APERTURE LIST*
G04 Aperture macros list*
%AMRoundRect*
0 Rectangle with rounded corners*
0 $1 Rounding radius*
0 $2 $3 $4 $5 $6 $7 $8 $9 X,Y pos of 4 corners*
0 Add a 4 corners polygon primitive as box body*
4,1,4,$2,$3,$4,$5,$6,$7,$8,$9,$2,$3,0*
0 Add four circle primitives for the rounded corners*
1,1,$1+$1,$2,$3*
1,1,$1+$1,$4,$5*
1,1,$1+$1,$6,$7*
1,1,$1+$1,$8,$9*
0 Add four rect primitives between the rounded corners*
20,1,$1+$1,$2,$3,$4,$5,0*
20,1,$1+$1,$4,$5,$6,$7,0*
20,1,$1+$1,$6,$7,$8,$9,0*
20,1,$1+$1,$8,$9,$2,$3,0*%
G04 Aperture macros list end*
%ADD10C,3.200000*%
%ADD11RoundRect,0.225000X-0.225000X-0.250000X0.225000X-0.250000X0.225000X0.250000X-0.225000X0.250000X0*%
%ADD12RoundRect,0.200000X-0.200000X-0.275000X0.200000X-0.275000X0.200000X0.275000X-0.200000X0.275000X0*%
%ADD13R,1.700000X1.700000*%
%ADD14C,1.700000*%
%ADD15RoundRect,0.218750X-0.218750X-0.256250X0.218750X-0.256250X0.218750X0.256250X-0.218750X0.256250X0*%
%ADD16RoundRect,0.050000X-0.387500X-0.050000X0.387500X-0.050000X0.387500X0.050000X-0.387500X0.050000X0*%
%ADD17RoundRect,0.050000X-0.050000X-0.387500X0.050000X-0.387500X0.050000X0.387500X-0.050000X0.387500X0*%
%ADD18R,3.200000X3.200000*%
G04 APERTURE END LIST*
D10*
%TO.C,H2*%
X33500000Y-3500000D03*
%TD*%
D11*
%TO.C,C5*%
X22260000Y-17565000D03*
X23810000Y-17565000D03*
%TD*%
%TO.C,C9*%
X17250000Y-21075000D03*
X18800000Y-21075000D03*
%TD*%
D10*
%TO.C,H1*%
X3500000Y-3500000D03*
%TD*%
D11*
%TO.C,C3*%
X12240000Y-17565000D03*
X13790000Y-17565000D03*
%TD*%
%TO.C,C6*%
X27270000Y-17565000D03*
X28820000Y-17565000D03*
%TD*%
D12*
%TO.C,R4*%
X27220000Y-21075000D03*
X28870000Y-21075000D03*
%TD*%
D10*
%TO.C,H4*%
X33500000Y-33500000D03*
%TD*%
D11*
%TO.C,C8*%
X12240000Y-21075000D03*
X13790000Y-21075000D03*
%TD*%
%TO.C,C2*%
X7229999Y-17565000D03*
X8779999Y-17565000D03*
%TD*%
%TO.C,C1*%
X23504999Y-7255000D03*
X25054999Y-7255000D03*
%TD*%
D13*
%TO.C,J1*%
X8295000Y-8295000D03*
D14*
X8295000Y-10835000D03*
%TD*%
D11*
%TO.C,C7*%
X7229999Y-21075000D03*
X8779999Y-21075000D03*
%TD*%
D15*
%TO.C,FB1*%
X22247500Y-21075000D03*
X23822500Y-21075000D03*
%TD*%
D11*
%TO.C,C4*%
X17250000Y-17565000D03*
X18800000Y-17565000D03*
%TD*%
D16*
%TO.C,U1*%
X13182500Y-8055000D03*
X13182500Y-8455000D03*
X13182500Y-8855000D03*
X13182500Y-9255000D03*
X13182500Y-9655000D03*
X13182500Y-10055000D03*
X13182500Y-10455000D03*
X13182500Y-10855000D03*
X13182500Y-11255000D03*
X13182500Y-11655000D03*
X13182500Y-12055000D03*
X13182500Y-12455000D03*
X13182500Y-12855000D03*
X13182500Y-13255000D03*
D17*
X14020000Y-14092500D03*
X14420000Y-14092500D03*
X14820000Y-14092500D03*
X15220000Y-14092500D03*
X15620000Y-14092500D03*
X16020000Y-14092500D03*
X16420000Y-14092500D03*
X16820000Y-14092500D03*
X17220000Y-14092500D03*
X17620000Y-14092500D03*
X18020000Y-14092500D03*
X18420000Y-14092500D03*
X18820000Y-14092500D03*
X19220000Y-14092500D03*
D16*
X20057500Y-13255000D03*
X20057500Y-12855000D03*
X20057500Y-12455000D03*
X20057500Y-12055000D03*
X20057500Y-11655000D03*
X20057500Y-11255000D03*
X20057500Y-10855000D03*
X20057500Y-10455000D03*
X20057500Y-10055000D03*
X20057500Y-9655000D03*
X20057500Y-9255000D03*
X20057500Y-8855000D03*
X20057500Y-8455000D03*
X20057500Y-8055000D03*
D17*
X19220000Y-7217500D03*
X18820000Y-7217500D03*
X18420000Y-7217500D03*
X18020000Y-7217500D03*
X17620000Y-7217500D03*
X17220000Y-7217500D03*
X16820000Y-7217500D03*
X16420000Y-7217500D03*
X16020000Y-7217500D03*
X15620000Y-7217500D03*
X15220000Y-7217500D03*
X14820000Y-7217500D03*
X14420000Y-7217500D03*
X14020000Y-7217500D03*
D18*
X16620000Y-10655000D03*
%TD*%
D10*
%TO.C,H3*%
X3500000Y-33500000D03*
%TD*%
M02*
