%TF.GenerationSoftware,KiCad,Pcbnew,10.0.5*%
%TF.CreationDate,2026-08-12T17:05:42+08:00*%
%TF.ProjectId,aircon-v6-routed,61697263-6f6e-42d7-9636-2d726f757465,rev?*%
%TF.SameCoordinates,Original*%
%TF.FileFunction,Soldermask,Bot*%
%TF.FilePolarity,Negative*%
%FSLAX46Y46*%
G04 Gerber Fmt 4.6, Leading zero omitted, Abs format (unit mm)*
G04 Created by KiCad (PCBNEW 10.0.5) date 2026-08-12 17:05:42*
%MOMM*%
%LPD*%
G01*
G04 APERTURE LIST*
G04 Aperture macros list*
%AMRoundRect*
0 Rectangle with rounded corners*
0 $1 Rounding radius*
0 $2 $3 $4 $5 $6 $7 $8 $9 X,Y pos of 4 corners*
0 Add a 4 corners polygon primitive as box body*
4,1,4,$2,$3,$4,$5,$6,$7,$8,$9,$2,$3,0*
0 Add four circle primitives for the rounded corners*
1,1,$1+$1,$2,$3*
1,1,$1+$1,$4,$5*
1,1,$1+$1,$6,$7*
1,1,$1+$1,$8,$9*
0 Add four rect primitives between the rounded corners*
20,1,$1+$1,$2,$3,$4,$5,0*
20,1,$1+$1,$4,$5,$6,$7,0*
20,1,$1+$1,$6,$7,$8,$9,0*
20,1,$1+$1,$8,$9,$2,$3,0*%
G04 Aperture macros list end*
%ADD10C,3.000000*%
%ADD11R,2.540000X2.540000*%
%ADD12C,2.540000*%
%ADD13R,1.700000X1.700000*%
%ADD14C,1.700000*%
%ADD15RoundRect,0.250000X-0.550000X-0.550000X0.550000X-0.550000X0.550000X0.550000X-0.550000X0.550000X0*%
%ADD16C,1.600000*%
%ADD17R,2.524000X1.524000*%
%ADD18O,2.524000X1.524000*%
%ADD19R,2.000000X2.000000*%
%ADD20C,2.000000*%
G04 APERTURE END LIST*
D10*
%TO.C,K2*%
X96100000Y-8000000D03*
X92900000Y-380000D03*
X99300000Y-380000D03*
D11*
X74000000Y-8000000D03*
D12*
X74000000Y-380000D03*
%TD*%
D10*
%TO.C,K3*%
X108100000Y-8000000D03*
X104900000Y-380000D03*
X111300000Y-380000D03*
D11*
X86000000Y-8000000D03*
D12*
X86000000Y-380000D03*
%TD*%
D13*
%TO.C,J3*%
X26000000Y-70000000D03*
D14*
X28540000Y-70000000D03*
X31080000Y-70000000D03*
X33620000Y-70000000D03*
%TD*%
D15*
%TO.C,U1*%
X20000000Y-36000000D03*
D16*
X20000000Y-38540000D03*
X20000000Y-41080000D03*
X20000000Y-43620000D03*
X20000000Y-46160000D03*
X20000000Y-48700000D03*
X20000000Y-51240000D03*
X20000000Y-53780000D03*
X27620000Y-53780000D03*
X27620000Y-51240000D03*
X27620000Y-48700000D03*
X27620000Y-46160000D03*
X27620000Y-43620000D03*
X27620000Y-41080000D03*
X27620000Y-38540000D03*
X27620000Y-36000000D03*
%TD*%
D17*
%TO.C,DS1*%
X60000000Y-36000000D03*
D18*
X60000000Y-38540000D03*
X60000000Y-41080000D03*
X60000000Y-43620000D03*
X60000000Y-46160000D03*
X75240000Y-46160000D03*
X75240000Y-43620000D03*
X75240000Y-41080000D03*
X75240000Y-38540000D03*
X75240000Y-36000000D03*
%TD*%
D13*
%TO.C,U2*%
X18000000Y-12000000D03*
D14*
X18000000Y-14540000D03*
X18000000Y-17080000D03*
X18000000Y-19620000D03*
%TD*%
D10*
%TO.C,K1*%
X84100000Y-8000000D03*
X80900000Y-380000D03*
X87300000Y-380000D03*
D11*
X62000000Y-8000000D03*
D12*
X62000000Y-380000D03*
%TD*%
D13*
%TO.C,J1*%
X92000000Y-28000000D03*
D14*
X94540000Y-28000000D03*
X97080000Y-28000000D03*
X99620000Y-28000000D03*
%TD*%
D13*
%TO.C,U5*%
X40000000Y-62000000D03*
D14*
X40000000Y-64540000D03*
X40000000Y-67080000D03*
%TD*%
D19*
%TO.C,BUZ1*%
X62000000Y-50000000D03*
D20*
X69600000Y-50000000D03*
%TD*%
D13*
%TO.C,J2*%
X12000000Y-64000000D03*
D14*
X14540000Y-64000000D03*
X17080000Y-64000000D03*
X19620000Y-64000000D03*
%TD*%
M02*
