%TF.GenerationSoftware,KiCad,Pcbnew,10.0.5*%
%TF.CreationDate,2026-08-12T17:05:42+08:00*%
%TF.ProjectId,aircon-v6-routed,61697263-6f6e-42d7-9636-2d726f757465,rev?*%
%TF.SameCoordinates,Original*%
%TF.FileFunction,Soldermask,Top*%
%TF.FilePolarity,Negative*%
%FSLAX46Y46*%
G04 Gerber Fmt 4.6, Leading zero omitted, Abs format (unit mm)*
G04 Created by KiCad (PCBNEW 10.0.5) date 2026-08-12 17:05:42*
%MOMM*%
%LPD*%
G01*
G04 APERTURE LIST*
G04 Aperture macros list*
%AMRoundRect*
0 Rectangle with rounded corners*
0 $1 Rounding radius*
0 $2 $3 $4 $5 $6 $7 $8 $9 X,Y pos of 4 corners*
0 Add a 4 corners polygon primitive as box body*
4,1,4,$2,$3,$4,$5,$6,$7,$8,$9,$2,$3,0*
0 Add four circle primitives for the rounded corners*
1,1,$1+$1,$2,$3*
1,1,$1+$1,$4,$5*
1,1,$1+$1,$6,$7*
1,1,$1+$1,$8,$9*
0 Add four rect primitives between the rounded corners*
20,1,$1+$1,$2,$3,$4,$5,0*
20,1,$1+$1,$4,$5,$6,$7,0*
20,1,$1+$1,$6,$7,$8,$9,0*
20,1,$1+$1,$8,$9,$2,$3,0*%
G04 Aperture macros list end*
%ADD10RoundRect,0.250000X-0.250000X-0.475000X0.250000X-0.475000X0.250000X0.475000X-0.250000X0.475000X0*%
%ADD11C,3.000000*%
%ADD12R,2.540000X2.540000*%
%ADD13C,2.540000*%
%ADD14RoundRect,0.250000X-0.262500X-0.450000X0.262500X-0.450000X0.262500X0.450000X-0.262500X0.450000X0*%
%ADD15RoundRect,0.150000X-0.587500X-0.150000X0.587500X-0.150000X0.587500X0.150000X-0.587500X0.150000X0*%
%ADD16R,1.700000X1.700000*%
%ADD17C,1.700000*%
%ADD18RoundRect,0.225000X-0.225000X-0.375000X0.225000X-0.375000X0.225000X0.375000X-0.225000X0.375000X0*%
%ADD19RoundRect,0.250000X-0.325000X-0.650000X0.325000X-0.650000X0.325000X0.650000X-0.325000X0.650000X0*%
%ADD20RoundRect,0.375000X0.375000X-0.625000X0.375000X0.625000X-0.375000X0.625000X-0.375000X-0.625000X0*%
%ADD21RoundRect,0.500000X1.400000X-0.500000X1.400000X0.500000X-1.400000X0.500000X-1.400000X-0.500000X0*%
%ADD22RoundRect,0.250000X-0.550000X-0.550000X0.550000X-0.550000X0.550000X0.550000X-0.550000X0.550000X0*%
%ADD23C,1.600000*%
%ADD24RoundRect,0.150000X-0.825000X-0.150000X0.825000X-0.150000X0.825000X0.150000X-0.825000X0.150000X0*%
%ADD25R,2.524000X1.524000*%
%ADD26O,2.524000X1.524000*%
%ADD27RoundRect,0.250000X-0.375000X-0.625000X0.375000X-0.625000X0.375000X0.625000X-0.375000X0.625000X0*%
%ADD28RoundRect,0.218750X-0.218750X-0.381250X0.218750X-0.381250X0.218750X0.381250X-0.218750X0.381250X0*%
%ADD29R,2.000000X2.000000*%
%ADD30C,2.000000*%
G04 APERTURE END LIST*
D10*
%TO.C,C10*%
X51050000Y-14000000D03*
X52950000Y-14000000D03*
%TD*%
D11*
%TO.C,K2*%
X96100000Y-8000000D03*
X92900000Y-380000D03*
X99300000Y-380000D03*
D12*
X74000000Y-8000000D03*
D13*
X74000000Y-380000D03*
%TD*%
D14*
%TO.C,R6*%
X81087500Y-16000000D03*
X82912500Y-16000000D03*
%TD*%
D15*
%TO.C,Q1*%
X61062500Y-25050000D03*
X61062500Y-26950000D03*
X62937500Y-26000000D03*
%TD*%
D11*
%TO.C,K3*%
X108100000Y-8000000D03*
X104900000Y-380000D03*
X111300000Y-380000D03*
D12*
X86000000Y-8000000D03*
D13*
X86000000Y-380000D03*
%TD*%
D16*
%TO.C,J3*%
X26000000Y-70000000D03*
D17*
X28540000Y-70000000D03*
X31080000Y-70000000D03*
X33620000Y-70000000D03*
%TD*%
D18*
%TO.C,D3*%
X82350000Y-32000000D03*
X85650000Y-32000000D03*
%TD*%
D10*
%TO.C,C4*%
X47050000Y-40000000D03*
X48950000Y-40000000D03*
%TD*%
D19*
%TO.C,C7*%
X82525000Y-20000000D03*
X85475000Y-20000000D03*
%TD*%
D20*
%TO.C,U3*%
X39700000Y-13150000D03*
X42000000Y-13150000D03*
X44300000Y-13150000D03*
D21*
X42000000Y-6850000D03*
%TD*%
D10*
%TO.C,C3*%
X47050000Y-32000000D03*
X48950000Y-32000000D03*
%TD*%
D14*
%TO.C,R1*%
X25087500Y-52000000D03*
X26912500Y-52000000D03*
%TD*%
D22*
%TO.C,U1*%
X20000000Y-36000000D03*
D23*
X20000000Y-38540000D03*
X20000000Y-41080000D03*
X20000000Y-43620000D03*
X20000000Y-46160000D03*
X20000000Y-48700000D03*
X20000000Y-51240000D03*
X20000000Y-53780000D03*
X27620000Y-53780000D03*
X27620000Y-51240000D03*
X27620000Y-48700000D03*
X27620000Y-46160000D03*
X27620000Y-43620000D03*
X27620000Y-41080000D03*
X27620000Y-38540000D03*
X27620000Y-36000000D03*
%TD*%
D19*
%TO.C,C6*%
X70525000Y-20000000D03*
X73475000Y-20000000D03*
%TD*%
D24*
%TO.C,U4*%
X35525000Y-31555000D03*
X35525000Y-32825000D03*
X35525000Y-34095000D03*
X35525000Y-35365000D03*
X35525000Y-36635000D03*
X35525000Y-37905000D03*
X35525000Y-39175000D03*
X35525000Y-40445000D03*
X40475000Y-40445000D03*
X40475000Y-39175000D03*
X40475000Y-37905000D03*
X40475000Y-36635000D03*
X40475000Y-35365000D03*
X40475000Y-34095000D03*
X40475000Y-32825000D03*
X40475000Y-31555000D03*
%TD*%
D25*
%TO.C,DS1*%
X60000000Y-36000000D03*
D26*
X60000000Y-38540000D03*
X60000000Y-41080000D03*
X60000000Y-43620000D03*
X60000000Y-46160000D03*
X75240000Y-46160000D03*
X75240000Y-43620000D03*
X75240000Y-41080000D03*
X75240000Y-38540000D03*
X75240000Y-36000000D03*
%TD*%
D16*
%TO.C,U2*%
X18000000Y-12000000D03*
D17*
X18000000Y-14540000D03*
X18000000Y-17080000D03*
X18000000Y-19620000D03*
%TD*%
D15*
%TO.C,Q3*%
X85062500Y-25050000D03*
X85062500Y-26950000D03*
X86937500Y-26000000D03*
%TD*%
D18*
%TO.C,D2*%
X70350000Y-32000000D03*
X73650000Y-32000000D03*
%TD*%
D14*
%TO.C,R5*%
X69087500Y-16000000D03*
X70912500Y-16000000D03*
%TD*%
D11*
%TO.C,K1*%
X84100000Y-8000000D03*
X80900000Y-380000D03*
X87300000Y-380000D03*
D12*
X62000000Y-8000000D03*
D13*
X62000000Y-380000D03*
%TD*%
D27*
%TO.C,F1*%
X4600000Y-14000000D03*
X7400000Y-14000000D03*
%TD*%
D18*
%TO.C,D1*%
X58350000Y-32000000D03*
X61650000Y-32000000D03*
%TD*%
D16*
%TO.C,J1*%
X92000000Y-28000000D03*
D17*
X94540000Y-28000000D03*
X97080000Y-28000000D03*
X99620000Y-28000000D03*
%TD*%
D16*
%TO.C,U5*%
X40000000Y-62000000D03*
D17*
X40000000Y-64540000D03*
X40000000Y-67080000D03*
%TD*%
D19*
%TO.C,C5*%
X58525000Y-20000000D03*
X61475000Y-20000000D03*
%TD*%
D10*
%TO.C,C2*%
X9050000Y-40000000D03*
X10950000Y-40000000D03*
%TD*%
%TO.C,C9*%
X29050000Y-12000000D03*
X30950000Y-12000000D03*
%TD*%
D14*
%TO.C,R2*%
X25087500Y-58000000D03*
X26912500Y-58000000D03*
%TD*%
D10*
%TO.C,C1*%
X9050000Y-32000000D03*
X10950000Y-32000000D03*
%TD*%
D28*
%TO.C,FB1*%
X16937500Y-20000000D03*
X19062500Y-20000000D03*
%TD*%
D14*
%TO.C,R3*%
X25087500Y-64000000D03*
X26912500Y-64000000D03*
%TD*%
%TO.C,R4*%
X57087500Y-16000000D03*
X58912500Y-16000000D03*
%TD*%
D15*
%TO.C,Q2*%
X73062500Y-25050000D03*
X73062500Y-26950000D03*
X74937500Y-26000000D03*
%TD*%
D29*
%TO.C,BUZ1*%
X62000000Y-50000000D03*
D30*
X69600000Y-50000000D03*
%TD*%
D16*
%TO.C,J2*%
X12000000Y-64000000D03*
D17*
X14540000Y-64000000D03*
X17080000Y-64000000D03*
X19620000Y-64000000D03*
%TD*%
M02*
