M48
; DRILL file KiCad 10.0.5 date 2026-08-12T17:05:42
; FORMAT={-:-/ absolute / metric / decimal}
; #@! TF.CreationDate,2026-08-12T17:05:42+08:00
; #@! TF.GenerationSoftware,Kicad,Pcbnew,10.0.5
; #@! TF.FileFunction,MixedPlating,1,2
FMAT,2
METRIC
; #@! TA.AperFunction,Plated,PTH,ViaDrill
T1C0.200
; #@! TA.AperFunction,Plated,PTH,ViaDrill
T2C0.300
; #@! TA.AperFunction,Plated,PTH,ComponentDrill
T3C0.800
; #@! TA.AperFunction,Plated,PTH,ComponentDrill
T4C1.000
; #@! TA.AperFunction,Plated,PTH,ComponentDrill
T5C1.300
%
G90
G05
T1
X73.2Y-32.6
X86.1Y-31.45
T2
X4.0Y-10.0
X4.0Y-22.0
X4.0Y-34.0
X4.0Y-46.0
X4.0Y-58.0
X4.0Y-70.0
X10.0Y-4.0
X10.0Y-75.0
X17.7Y-34.9
X17.7Y-36.8
X20.0Y-33.8
X22.0Y-4.0
X22.0Y-75.0
X22.6Y-31.3
X22.6Y-36.1
X33.6Y-40.1
X33.8Y-32.3
X34.0Y-4.0
X34.0Y-75.0
X35.3Y-31.4
X35.5Y-36.6
X35.5Y-39.2
X37.0Y-37.9
X37.1Y-32.5
X38.1Y-44.7
X38.9Y-34.5
X39.9Y-43.6
X40.3Y-30.3
X40.5Y-39.2
X41.9Y-34.7
X44.1Y-47.8
X45.1Y-46.0
X46.0Y-4.0
X46.0Y-75.0
X48.7Y-39.2
X51.5Y-34.5
X54.8Y-8.9
X56.8Y-41.2
X57.3Y-20.4
X57.7Y-22.7
X57.7Y-26.6
X57.7Y-28.9
X57.8Y-34.8
X58.0Y-4.0
X58.0Y-75.0
X58.4Y-32.0
X59.3Y-22.7
X59.3Y-26.6
X59.3Y-28.9
X59.6Y-16.4
X60.0Y-14.0
X60.8Y-12.7
X61.4Y-20.1
X62.025Y-29.55
X62.025Y-30.85
X62.4Y-34.8
X62.8Y-13.5
X62.8Y-16.8
X63.4Y-2.9
X63.4Y-20.4
X63.4Y-25.0
X63.4Y-27.6
X64.5Y-34.1
X65.0Y-2.9
X65.0Y-11.0
X66.7Y-8.0
X69.75Y-15.575
X69.75Y-17.825
X70.0Y-4.0
X70.0Y-14.0
X70.0Y-75.0
X70.9Y-16.0
X72.9Y-19.4
X74.7Y-26.1
X74.775Y-25.2
X75.375Y-28.875
X75.5Y-31.2
X77.8Y-32.4
X77.8Y-35.3
X78.8Y-15.1
X80.0Y-14.0
X80.8Y-7.825
X81.6Y-10.5
X81.725Y-6.9
X82.0Y-4.0
X82.0Y-75.0
X83.0Y-11.9
X83.0Y-15.9
X85.3Y-16.9
X85.5Y-20.0
X86.025Y-2.65
X86.6Y-6.1
X86.938Y-26.0
X89.0Y-23.5
X90.0Y-14.0
X91.1Y-6.1
X92.0Y-24.0
X94.0Y-4.0
X94.0Y-75.0
X96.0Y-10.0
X96.0Y-22.0
X96.0Y-34.0
X96.0Y-46.0
X96.0Y-58.0
X96.0Y-70.0
T3
X20.0Y-36.0
X20.0Y-38.54
X20.0Y-41.08
X20.0Y-43.62
X20.0Y-46.16
X20.0Y-48.7
X20.0Y-51.24
X20.0Y-53.78
X27.62Y-36.0
X27.62Y-38.54
X27.62Y-41.08
X27.62Y-43.62
X27.62Y-46.16
X27.62Y-48.7
X27.62Y-51.24
X27.62Y-53.78
X60.0Y-36.0
X60.0Y-38.54
X60.0Y-41.08
X60.0Y-43.62
X60.0Y-46.16
X75.24Y-36.0
X75.24Y-38.54
X75.24Y-41.08
X75.24Y-43.62
X75.24Y-46.16
T4
X12.0Y-64.0
X14.54Y-64.0
X17.08Y-64.0
X18.0Y-12.0
X18.0Y-14.54
X18.0Y-17.08
X18.0Y-19.62
X19.62Y-64.0
X26.0Y-70.0
X28.54Y-70.0
X31.08Y-70.0
X33.62Y-70.0
X40.0Y-62.0
X40.0Y-64.54
X40.0Y-67.08
X62.0Y-50.0
X69.6Y-50.0
X92.0Y-28.0
X94.54Y-28.0
X97.08Y-28.0
X99.62Y-28.0
T5
X62.0Y-0.38
X62.0Y-8.0
X74.0Y-0.38
X74.0Y-8.0
X80.9Y-0.38
X84.1Y-8.0
X86.0Y-0.38
X86.0Y-8.0
X87.3Y-0.38
X92.9Y-0.38
X96.1Y-8.0
X99.3Y-0.38
X104.9Y-0.38
X108.1Y-8.0
X111.3Y-0.38
M30
